<svg version="1" xmlns="http://www.w3.org/2000/svg" width="682.667" height="682.667" viewBox="0 0 512.000000 512.000000"><path d="M155.1 8.7c-.7 4.9-1.5 10.4-1.8 12.3-.3 1.9-.8 3.9-1.3 4.3-.4.5-10.4.8-22.2.8h-21.5l-1.8 11.2c-.9 6.2-1.9 12.1-2.1 13.2-.2 1.1-1.3 7.8-2.4 15-1.1 7.1-2.3 14.2-2.5 15.7-1.1 6.4-1.6 9.4-2 11.8-.2 1.4-1.3 8.1-2.4 15-1.2 6.9-2.3 14.2-2.7 16.4-.3 2.1-.8 4.8-1 6-.2 1.1-2.2 13.4-4.4 27.2-2.2 13.8-4.2 25.9-4.4 27-.4 1.9-1.4 8.5-2.1 13.4-.2 1.4-1.1 6.5-1.9 11.5-.9 4.9-1.8 10.8-2.2 13-.3 2.2-2.1 13.2-3.9 24.5-1.9 11.3-3.6 22.1-3.9 24-.3 1.9-.8 4.6-1.1 6-.5 2.8-3.1 19.4-4 25.5-.4 2.2-.8 4.7-1 5.5-.2.8-.7 3.7-1.1 6.5-.3 2.7-.8 5.9-1 7-.3 1.1-.7 3.6-1 5.5-.3 1.9-.9 6-1.4 9-.5 3-1.2 6.8-1.4 8.5-1.5 9.1-4.7 28.3-5 30-.2 1.1-.7 4-1 6.5-.3 2.5-.8 5.5-1 6.6-.2 1.2-.7 3.9-1.1 6-.3 2.2-.8 5-1 6.4-.2 1.4-.9 5.6-1.5 9.5-1.4 9-1.9 11.8-3 18.5-.5 3-1.2 6.8-1.4 8.5-.3 1.6-2.1 12.9-4.1 25-1.9 12.1-4.5 27.6-5.6 34.5-1.1 6.9-2.1 13.3-2.3 14.2-.4 1.7 1.8 1.8 34.9 1.8h35.3l.6-2.7c.3-1.6.8-4.6 1.1-6.8.2-2.2.6-4.9.9-6 .2-1.1.7-4.3 1-7 1.3-9.3-1-8.5 23.6-8.5 24.7 0 22.3.9 23.5-9 .4-3 .9-6.4 1.1-7.5.2-1.1.6-3.8.9-6 .3-2.2.7-5.4.9-7 .3-1.7 1.4-9.7 2.6-17.9 1.2-8.3 2.3-15.4 2.6-15.8.6-1 42.4-1.1 42.4-.1 0 .5.4 3.5 1 6.8.5 3.3 1.2 8 1.5 10.5.3 2.5 1 7.2 1.5 10.5s1.2 8 1.5 10.5c.3 2.5.8 5.6 1 7 .2 1.4.7 4.5 1 7 .4 2.5.8 5.6 1 7 .2 1.4.6 4.3 1 6.5.3 2.3.7 5.1 1 6.4.2 1.3.7 4.9 1.1 8 .3 3.1.9 7.4 1.3 9.6l.7 4 38.3.3 38.3.2-.6-2.7c-1.1-5.5-3.8-21.9-4.1-25.1l-.3-3.2H340l-.5-3.8c-.3-2-.8-4.8-1-6.2-.3-1.4-.7-4.3-1.1-6.5-.3-2.2-.7-4.7-.9-5.5-.3-.8-1.3-7.4-2.5-14.5-1.1-7.2-2.2-14.1-2.5-15.5-.6-3.3-3.5-21.6-4.1-25.5-.2-1.7-.6-4.1-.9-5.5-.3-1.4-1-5.4-1.5-9-1.4-9.3-1.9-12.4-3.6-22.5-.8-5-1.7-10.4-2-12-.2-1.7-.9-5.5-1.4-8.5-.5-3-1.2-6.9-1.4-8.5-.3-1.7-.7-4.4-1-6.1-.3-1.7-.8-4.7-1-6.7-.5-3.7-1.1-7.5-2.1-13.2-.7-3.8-2.5-14.2-3-17.5-.6-4.2-4.3-27.3-5-31-1.9-11.5-4.4-27.1-5-30.5-.3-2.2-.7-4.9-1-6-.2-1.1-.7-4.3-1-7-.4-2.8-.9-5.9-1.2-6.9-.3-1.1-.7-3.4-.9-5-.2-1.7-2.1-14.1-4.4-27.6-2.2-13.5-4.3-26.1-4.6-28-.3-1.9-1.3-8.7-2.4-15-1-6.3-2.1-13.3-2.5-15.5-.3-2.3-.8-5.2-1-6.5-.3-1.4-1.2-7-2.1-12.5-.8-5.5-1.9-12.3-2.4-15-.6-2.8-1.7-9.3-2.5-14.5-.8-5.2-1.7-10.4-1.9-11.5-.2-1.1-.6-4.1-1-6.6s-.9-5.7-1.1-7c-1.9-11.7-2.5-14.9-3-18.4-.5-3.9-1.4-9-2.1-13-.3-1.1-.9-5.3-1.5-9.3L261.8 0H156.4l-1.3 8.7zM180.4 272c.4 2.5.9 5.6 1.1 7 .2 1.4.7 4.5 1 7 .3 2.5.8 5.6 1 7 .2 1.4.7 4.3 1 6.5.2 2.2.9 7.1 1.5 11 .5 3.8 1 7.6 1 8.3 0 1-1.8 1.2-7.2 1-8.1-.3-7.5.6-6.3-9.3 1.1-9.6 1.3-11.1 4-29.5.2-1.4.7-5.1 1.1-8.3.3-3.2.8-5.7.9-5.5.2.2.6 2.3.9 4.8zM408.9 407.5c-.1 0-.2 7-.3 15.5l-.1 15.5h-24.3c-15.8 0-24.3.3-24.3 1-.1.5-.3 17.1-.3 36.7l-.2 35.8H433v-31h49v-73.6h-36.5c-20.1 0-36.6 0-36.6.1z"/></svg>